<svg id="Layer_2" fill="#00f" data-name="Layer 2" xmlns="http://www.w3.org/2000/svg" viewBox="0 0 191 119.33"><title>SUNDAY DESERT PIXEL EYE</title><rect x="23.78" y="11.94" width="11.94" height="11.94"/><rect x="35.81" y="23.83" width="11.94" height="11.94"/><rect x="47.75" y="35.77" width="11.94" height="11.94"/><rect x="59.69" y="35.77" width="11.94" height="11.94"/><rect x="71.63" y="35.77" width="11.94" height="11.94"/><rect x="71.63" y="23.83" width="11.94" height="11.94"/><rect x="71.63" y="11.94" width="11.94" height="11.94"/><rect x="59.69" width="11.94" height="11.94"/><rect x="83.56" y="35.77" width="11.94" height="11.94"/><rect x="95.5" y="35.77" width="11.94" height="11.94"/><rect x="83.56" y="59.6" width="11.94" height="11.94"/><rect x="95.5" y="59.6" width="11.94" height="11.94"/><rect x="83.56" y="71.54" width="11.94" height="11.94"/><rect x="95.5" y="71.54" width="11.94" height="11.94"/><rect x="83.56" y="83.44" width="11.94" height="11.94"/><rect x="95.5" y="83.44" width="11.94" height="11.94"/><rect x="107.44" y="35.77" width="11.94" height="11.94"/><rect x="119.38" y="35.77" width="11.94" height="11.94"/><rect x="131.31" y="35.77" width="11.94" height="11.94"/><rect x="59.69" y="107.4" width="11.94" height="11.94"/><rect x="71.63" y="107.4" width="11.94" height="11.94"/><rect x="83.56" y="107.4" width="11.94" height="11.94"/><rect x="95.5" y="107.4" width="11.94" height="11.94"/><rect x="107.44" y="107.4" width="11.94" height="11.94"/><rect x="119.38" y="107.4" width="11.94" height="11.94"/><rect x="131.31" y="107.4" width="11.94" height="11.94"/><rect x="47.75" y="47.71" width="11.94" height="11.94"/><rect x="35.81" y="47.71" width="11.94" height="11.94"/><rect x="23.88" y="59.65" width="11.94" height="11.94"/><rect x="11.94" y="47.71" width="11.94" height="11.94"/><rect y="35.77" width="11.94" height="11.94"/><rect x="11.94" y="71.58" width="11.94" height="11.94"/><rect x="23.88" y="83.52" width="11.94" height="11.94"/><rect x="35.81" y="95.46" width="11.94" height="11.94"/><rect x="47.75" y="95.46" width="11.94" height="11.94"/><rect x="450.52" y="351.02" width="11.94" height="11.94" transform="translate(617.74 374.9) rotate(180)"/><rect x="438.49" y="362.92" width="11.94" height="11.94" transform="translate(593.68 398.69) rotate(180)"/><rect x="402.68" y="362.92" width="11.94" height="11.94" transform="translate(522.05 398.69) rotate(180)"/><rect x="402.68" y="351.02" width="11.94" height="11.94" transform="translate(522.05 374.9) rotate(180)"/><rect x="414.61" y="339.08" width="11.94" height="11.94" transform="translate(545.93 351.02) rotate(180)"/><rect x="426.55" y="386.79" width="11.94" height="11.94" transform="translate(569.8 446.44) rotate(180)"/><rect x="438.49" y="386.79" width="11.94" height="11.94" transform="translate(593.68 446.44) rotate(180)"/><rect x="450.43" y="398.73" width="11.94" height="11.94" transform="translate(617.55 470.31) rotate(180)"/><rect x="462.36" y="386.79" width="11.94" height="11.94" transform="translate(641.43 446.44) rotate(180)"/><rect x="474.3" y="374.85" width="11.94" height="11.94" transform="translate(665.3 422.56) rotate(180)"/><rect x="462.36" y="410.67" width="11.94" height="11.94" transform="translate(641.43 494.19) rotate(180)"/><rect x="450.43" y="422.6" width="11.94" height="11.94" transform="translate(617.55 518.06) rotate(180)"/><rect x="438.49" y="434.54" width="11.94" height="11.94" transform="translate(593.68 541.94) rotate(180)"/><rect x="426.55" y="434.54" width="11.94" height="11.94" transform="translate(569.8 541.94) rotate(180)"/></svg>
